<svg width="118" height="130" viewBox="0 0 118 130" fill="none" xmlns="http://www.w3.org/2000/svg">
  <path d="M116.694 -86.5178C116.834 -86.6241 117.034 -86.5966 117.14 -86.4564C117.247 -86.3162 117.219 -86.1164 117.079 -86.0102L116.694 -86.5178ZM30.3482 15.797L30.6581 15.8703L30.3482 15.797ZM67.9937 39.857L68.2856 39.9844L68.2756 40.0074L68.262 40.0285L67.9937 39.857ZM28.9068 35.0934L29.1312 35.3194L28.9068 35.0934ZM-6.78795 126.113C-5.99747 126.619 -5.76621 127.669 -6.27142 128.459C-6.77663 129.25 -7.827 129.481 -8.61748 128.976C-9.40796 128.471 -9.63921 127.42 -9.134 126.63C-8.62879 125.839 -7.57843 125.608 -6.78795 126.113ZM117.079 -86.0102C116.661 -85.6935 116.24 -85.372 115.816 -85.0458L115.428 -85.5508C115.853 -85.8778 116.275 -86.2002 116.694 -86.5178L117.079 -86.0102ZM113.273 -83.0627C112.442 -82.4059 111.601 -81.7331 110.751 -81.0449L110.351 -81.54C111.202 -82.2296 112.045 -82.9041 112.878 -83.5624L113.273 -83.0627ZM108.261 -79.0051C107.446 -78.3305 106.624 -77.6431 105.796 -76.9435L105.385 -77.4301C106.214 -78.131 107.038 -78.8198 107.854 -79.4958L108.261 -79.0051ZM103.345 -74.8529C102.537 -74.1575 101.725 -73.4514 100.908 -72.7353L100.488 -73.2143C101.306 -73.9316 102.12 -74.6389 102.929 -75.3356L103.345 -74.8529ZM98.494 -70.6005C97.6999 -69.8923 96.9026 -69.1754 96.1027 -68.4502L95.6748 -68.9221C96.476 -69.6484 97.2746 -70.3666 98.07 -71.0759L98.494 -70.6005ZM93.7227 -66.2752C92.9355 -65.5501 92.1464 -64.8175 91.356 -64.0781L90.9208 -64.5433C91.7124 -65.2838 92.5027 -66.0175 93.2912 -66.7437L93.7227 -66.2752ZM89.0166 -61.8728C88.241 -61.1361 87.4648 -60.3933 86.6886 -59.6448L86.2464 -60.1034C87.0238 -60.8529 87.8012 -61.5968 88.5779 -62.3346L89.0166 -61.8728ZM84.3744 -57.3967C83.6096 -56.6482 82.8454 -55.8947 82.0822 -55.1366L81.6333 -55.5885C82.3976 -56.3477 83.1629 -57.1023 83.9289 -57.852L84.3744 -57.3967ZM79.8047 -52.8572C79.049 -52.0952 78.295 -51.3292 77.5432 -50.5596L77.0876 -51.0047C77.8405 -51.7755 78.5956 -52.5426 79.3524 -53.3057L79.8047 -52.8572ZM75.3012 -48.2469C74.5565 -47.4729 73.8146 -46.6957 73.0759 -45.9158L72.6134 -46.3539C73.3532 -47.135 74.0963 -47.9133 74.8421 -48.6885L75.3012 -48.2469ZM70.8699 -43.5683C70.1366 -42.7817 69.4072 -41.9929 68.6821 -41.2022L68.2126 -41.6327C68.9389 -42.4247 69.6695 -43.2148 70.4039 -44.0027L70.8699 -43.5683ZM66.5137 -38.8176C65.7934 -38.0188 65.0782 -37.2185 64.3685 -36.4174L63.8917 -36.8398C64.6026 -37.6423 65.3191 -38.4439 66.0406 -39.2441L66.5137 -38.8176ZM62.242 -33.995C61.5342 -33.1812 60.8326 -32.3668 60.1379 -31.5525L59.6533 -31.9659C60.3493 -32.7818 61.0522 -33.5977 61.7614 -34.4131L62.242 -33.995ZM58.0617 -29.0941C57.3694 -28.2661 56.6849 -27.4384 56.0086 -26.6118L55.5156 -27.0151C56.1933 -27.8436 56.8793 -28.6729 57.5729 -29.5027L58.0617 -29.0941ZM53.9802 -24.1038C53.3057 -23.26 52.6406 -22.4178 51.9854 -21.5777L51.4831 -21.9695C52.1399 -22.8116 52.8066 -23.6558 53.4826 -24.5015L53.9802 -24.1038ZM50.0263 -19.0321C49.3696 -18.1673 48.7244 -17.3053 48.0914 -16.4467L47.5787 -16.8247C48.2136 -17.6858 48.8606 -18.5502 49.5189 -19.4173L50.0263 -19.0321ZM46.1985 -13.8385C45.5689 -12.9567 44.9532 -12.0792 44.352 -11.2066L43.8275 -11.568C44.4307 -12.4436 45.0485 -13.324 45.6801 -14.2087L46.1985 -13.8385ZM42.5567 -8.54915C41.9545 -7.63928 41.3695 -6.73574 40.8027 -5.83931L40.2643 -6.17972C40.8336 -7.08008 41.421 -7.98734 42.0256 -8.90075L42.5567 -8.54915ZM39.1119 -3.09548C38.5504 -2.1591 38.0105 -1.23169 37.4934 -0.314186L36.9385 -0.626911C37.4585 -1.54968 38.0013 -2.48205 38.5656 -3.42309L39.1119 -3.09548ZM35.9586 2.50948C35.4511 3.48 34.9718 4.43768 34.5221 5.38134L33.9471 5.10732C34.4004 4.1561 34.8832 3.19136 35.3941 2.21432L35.9586 2.50948ZM33.2045 8.30775C32.7754 9.32296 32.3848 10.3191 32.0346 11.2945L31.435 11.0793C31.7895 10.0919 32.1845 9.08484 32.6178 8.05973L33.2045 8.30775ZM31.0541 14.3445C30.9089 14.8602 30.7768 15.3689 30.6581 15.8703L30.0382 15.7236C30.1591 15.2131 30.2934 14.6957 30.4409 14.1719L31.0541 14.3445ZM30.6581 15.8703C30.5321 16.4029 30.4205 16.9323 30.3229 17.4585L29.6966 17.3424C29.7961 16.8059 29.9098 16.2662 30.0382 15.7236L30.6581 15.8703ZM29.8966 20.6465C29.807 21.7403 29.7777 22.8167 29.8044 23.8728L29.1676 23.8889C29.1403 22.81 29.1703 21.711 29.2617 20.5945L29.8966 20.6465ZM30.0627 27.0822C30.2104 28.1626 30.4173 29.2169 30.6783 30.242L30.061 30.3992C29.7941 29.3509 29.5826 28.2729 29.4316 27.1685L30.0627 27.0822ZM31.6513 33.3114C32.0393 34.3271 32.4821 35.3065 32.9738 36.2457L32.4094 36.5412C31.9062 35.5799 31.4532 34.5778 31.0562 33.5387L31.6513 33.3114ZM34.6326 39.002C35.2478 39.8979 35.9103 40.7452 36.6134 41.5394L36.1364 41.9616C35.416 41.1478 34.7374 40.2799 34.1075 39.3626L34.6326 39.002ZM38.8914 43.8062C39.7087 44.5208 40.5627 45.1721 41.4457 45.7548L41.0949 46.2865C40.1874 45.6876 39.3105 45.0189 38.4721 44.2857L38.8914 43.8062ZM44.2453 47.3262C45.2253 47.7847 46.228 48.1621 47.2446 48.4527L47.0694 49.0652C46.0192 48.7649 44.9848 48.3755 43.9754 47.9032L44.2453 47.3262ZM50.383 49.0649C51.4455 49.176 52.5131 49.1897 53.5761 49.1L53.6297 49.7348C52.5255 49.8279 51.4178 49.8135 50.3167 49.6984L50.383 49.0649ZM56.7139 48.5227C57.7165 48.2341 58.7071 47.8445 59.6772 47.348L59.9674 47.915C58.9609 48.4302 57.9321 48.8349 56.89 49.1348L56.7139 48.5227ZM62.3772 45.6404C63.1966 45.0153 63.9941 44.3015 64.7636 43.4945L65.2246 43.934C64.4328 44.7644 63.6105 45.5008 62.7635 46.1468L62.3772 45.6404ZM66.8101 41.0293C67.1217 40.6001 67.427 40.1523 67.7253 39.6855L68.262 40.0285C67.9571 40.5057 67.6448 40.9639 67.3256 41.4036L66.8101 41.0293ZM67.7017 39.7297C67.9116 39.2486 68.092 38.77 68.244 38.295L68.8507 38.4891C68.6919 38.9852 68.5039 39.484 68.2856 39.9844L67.7017 39.7297ZM68.8391 35.3005C68.9187 34.2544 68.8589 33.2394 68.6711 32.2691L69.2965 32.1481C69.4953 33.1753 69.5581 34.2473 69.4742 35.3489L68.8391 35.3005ZM67.6839 29.4052C67.226 28.5105 66.6421 27.6773 65.9434 26.9211L66.4113 26.4888C67.1483 27.2866 67.7659 28.1674 68.2509 29.1149L67.6839 29.4052ZM63.6106 24.9615C62.7849 24.4235 61.8733 23.9613 60.8839 23.5871L61.1093 22.9913C62.1398 23.3811 63.0928 23.8638 63.9584 24.4278L63.6106 24.9615ZM57.9266 22.7812C56.9554 22.6092 55.9323 22.5112 54.863 22.4951L54.8726 21.8582C55.9747 21.8748 57.0317 21.9758 58.0377 22.154L57.9266 22.7812ZM51.7781 22.6675C50.7972 22.7891 49.7864 22.9755 48.7494 23.2319L48.5966 22.6135C49.6573 22.3513 50.693 22.1601 51.6998 22.0354L51.7781 22.6675ZM45.784 24.1347C44.8475 24.4727 43.8939 24.8664 42.9254 25.3189L42.6557 24.7418C43.6412 24.2814 44.6126 23.8803 45.5678 23.5356L45.784 24.1347ZM40.1609 26.7511C39.2902 27.2465 38.4098 27.7893 37.5213 28.3815L37.168 27.8515C38.0686 27.2512 38.9618 26.7005 39.8459 26.1975L40.1609 26.7511ZM34.9955 30.1847C34.1941 30.795 33.3874 31.4458 32.5767 32.1387L32.1628 31.6545C32.9825 30.954 33.7984 30.2956 34.6095 29.6779L34.9955 30.1847ZM30.2635 34.2215C29.8866 34.5782 29.5092 34.9441 29.1312 35.3194L28.6824 34.8674C29.0639 34.4885 29.445 34.1191 29.8256 33.7589L30.2635 34.2215ZM29.1312 35.3194C28.7628 35.6851 28.3986 36.0565 28.0385 36.4336L27.5779 35.9936C27.9418 35.6125 28.31 35.2371 28.6824 34.8674L29.1312 35.3194ZM25.9359 38.7499C25.2575 39.5355 24.5944 40.3413 23.9462 41.1659L23.4454 40.7723C24.0994 39.9402 24.7687 39.1268 25.4538 38.3336L25.9359 38.7499ZM22.0646 43.6687C21.4579 44.5119 20.865 45.3718 20.2855 46.247L19.7544 45.8954C20.3383 45.0135 20.9358 44.1468 21.5476 43.2967L22.0646 43.6687ZM18.603 48.8908C18.0601 49.778 17.5296 50.6787 17.0111 51.5916L16.4572 51.277C16.979 50.3583 17.513 49.4517 18.0597 48.5583L18.603 48.8908ZM15.5041 54.3417C15.017 55.2625 14.5412 56.1939 14.0762 57.1347L13.5051 56.8525C13.9726 55.9066 14.4511 54.97 14.941 54.0438L15.5041 54.3417ZM12.722 59.9651C12.2835 60.9117 11.8552 61.8662 11.4366 62.8276L10.8525 62.5733C11.273 61.6076 11.7034 60.6485 12.144 59.6973L12.722 59.9651ZM10.2152 65.7176C9.81857 66.6842 9.43121 67.6564 9.05268 68.6329L8.45874 68.4027C8.83871 67.4225 9.22762 66.4464 9.62587 65.4758L10.2152 65.7176ZM7.94478 71.5704C7.58405 72.5532 7.23174 73.5392 6.88748 74.5273L6.28595 74.3177C6.63132 73.3264 6.98481 72.3371 7.3468 71.3509L7.94478 71.5704ZM5.87697 77.501C5.54693 78.4966 5.22461 79.4932 4.90961 80.4895L4.30226 80.2975C4.6181 79.2985 4.94132 78.2991 5.27232 77.3006L5.87697 77.501ZM3.98195 83.4908C3.67788 84.4967 3.38091 85.5012 3.09059 86.5032L2.47877 86.3259C2.76972 85.3217 3.0674 84.3149 3.37221 83.3065L3.98195 83.4908ZM2.23221 89.5251C1.94962 90.5396 1.67354 91.5501 1.40349 92.5554L0.788314 92.3901C1.05883 91.3831 1.33543 90.3707 1.61858 89.3542L2.23221 89.5251ZM0.601103 95.5928C0.335469 96.6148 0.0757756 97.6298 -0.178444 98.6366L-0.796054 98.4807C-0.541501 97.4726 -0.281444 96.4561 -0.0154087 95.4326L0.601103 95.5928ZM-0.938785 101.686C-1.19236 102.715 -1.44053 103.734 -1.68384 104.74L-2.303 104.591C-2.05951 103.583 -1.81111 102.564 -1.55727 101.534L-0.938785 101.686ZM-2.41796 107.799C-2.66527 108.835 -2.90775 109.856 -3.14606 110.86L-3.76584 110.713C-3.52752 109.709 -3.28496 108.687 -3.03756 107.651L-2.41796 107.799ZM-3.8739 113.924C-4.12257 114.967 -4.36715 115.989 -4.60842 116.986L-5.22755 116.836C-4.98651 115.84 -4.74212 114.819 -4.49354 113.776L-3.8739 113.924ZM-5.35827 120.043C-5.6197 121.092 -5.87812 122.107 -6.13462 123.086L-6.75083 122.925C-6.49508 121.949 -6.23729 120.936 -5.97634 119.889L-5.35827 120.043ZM-6.96229 126.135C-7.10749 126.648 -7.25247 127.149 -7.39745 127.635L-8.00796 127.454C-7.86389 126.97 -7.71972 126.472 -7.57524 125.961L-6.96229 126.135Z" fill="#261436" />
</svg>