<svg width="166" height="194" viewBox="0 0 166 194" fill="none" xmlns="http://www.w3.org/2000/svg">
<path d="M164.666 -145.545C164.886 -145.711 165.199 -145.668 165.366 -145.448C165.533 -145.228 165.49 -144.914 165.27 -144.748L164.666 -145.545ZM29.1126 15.0775L29.5991 15.1927L29.1126 15.0775ZM88.2116 52.8489L88.6699 53.0488L88.6541 53.0849L88.6329 53.1182L88.2116 52.8489ZM26.8498 45.3706L27.202 45.7254L26.8498 45.3706ZM-29.1867 188.261C-27.9458 189.054 -27.5827 190.703 -28.3758 191.944C-29.169 193.185 -30.8179 193.548 -32.0589 192.755C-33.2998 191.962 -33.6629 190.313 -32.8697 189.072C-32.0766 187.831 -30.4277 187.468 -29.1867 188.261ZM165.27 -144.748C164.614 -144.25 163.953 -143.746 163.287 -143.234L162.677 -144.026C163.345 -144.54 164.008 -145.046 164.666 -145.545L165.27 -144.748ZM159.295 -140.12C157.99 -139.089 156.67 -138.033 155.336 -136.953L154.707 -137.73C156.044 -138.813 157.367 -139.871 158.675 -140.905L159.295 -140.12ZM151.426 -133.751C150.147 -132.692 148.856 -131.612 147.556 -130.514L146.911 -131.278C148.213 -132.378 149.506 -133.46 150.788 -134.521L151.426 -133.751ZM143.709 -127.232C142.441 -126.14 141.166 -125.032 139.883 -123.908L139.224 -124.66C140.508 -125.786 141.786 -126.896 143.056 -127.99L143.709 -127.232ZM136.094 -120.556C134.847 -119.445 133.595 -118.319 132.339 -117.181L131.668 -117.921C132.925 -119.062 134.179 -120.189 135.428 -121.303L136.094 -120.556ZM128.603 -113.766C127.367 -112.628 126.128 -111.478 124.888 -110.317L124.205 -111.047C125.447 -112.21 126.688 -113.361 127.926 -114.502L128.603 -113.766ZM121.215 -106.855C119.997 -105.698 118.779 -104.532 117.56 -103.357L116.866 -104.077C118.087 -105.254 119.307 -106.422 120.526 -107.58L121.215 -106.855ZM113.927 -99.828C112.727 -98.6529 111.527 -97.4699 110.329 -96.2798L109.624 -96.9893C110.824 -98.1811 112.026 -99.3658 113.228 -100.543L113.927 -99.828ZM106.753 -92.7014C105.567 -91.5052 104.384 -90.3027 103.203 -89.0945L102.488 -89.7933C103.67 -91.0033 104.855 -92.2076 106.043 -93.4056L106.753 -92.7014ZM99.6835 -85.4638C98.5144 -84.2487 97.3497 -83.0287 96.19 -81.8044L95.464 -82.492C96.6255 -83.7182 97.792 -84.9402 98.9628 -86.1571L99.6835 -85.4638ZM92.7269 -78.119C91.5758 -76.8842 90.4306 -75.6457 89.2923 -74.4045L88.5553 -75.0804C89.6955 -76.3237 90.8425 -77.5641 91.9954 -78.8009L92.7269 -78.119ZM85.8881 -70.6609C84.7574 -69.4068 83.6346 -68.1506 82.5204 -66.8929L81.7719 -67.556C82.888 -68.8159 84.0128 -70.0743 85.1454 -71.3305L85.8881 -70.6609ZM79.1821 -63.0901C78.0709 -61.8124 76.9695 -60.534 75.8789 -59.2556L75.1181 -59.9046C76.2109 -61.1855 77.3143 -62.4663 78.4276 -63.7463L79.1821 -63.0901ZM72.6195 -55.3963C71.5328 -54.0963 70.4581 -52.797 69.3965 -51.4993L68.6225 -52.1324C69.6864 -53.433 70.7633 -54.735 71.8522 -56.0376L72.6195 -55.3963ZM66.212 -47.5619C65.1532 -46.2374 64.109 -44.9153 63.0805 -43.5964L62.292 -44.2114C63.323 -45.5335 64.3697 -46.8587 65.4309 -48.1863L66.212 -47.5619ZM60.0049 -39.6001C58.974 -38.2424 57.9612 -36.8892 56.9673 -35.5413L56.1625 -36.1347C57.1592 -37.4865 58.1748 -38.8435 59.2084 -40.2048L60.0049 -39.6001ZM53.9958 -31.4468C53.0074 -30.0624 52.0407 -28.6848 51.097 -27.315L50.2735 -27.8823C51.2205 -29.2569 52.1904 -30.639 53.1819 -32.0278L53.9958 -31.4468ZM48.2786 -23.1431C47.3331 -21.7147 46.4148 -20.2962 45.525 -18.889L44.6798 -19.4234C45.5734 -20.8368 46.4956 -22.2611 47.4447 -23.695L48.2786 -23.1431ZM42.8706 -14.5815C41.9891 -13.1115 41.1415 -11.6555 40.3298 -10.2152L39.4587 -10.7061C40.275 -12.1547 41.1271 -13.6185 42.013 -15.0958L42.8706 -14.5815ZM37.9203 -5.78234C37.1236 -4.25874 36.3712 -2.75529 35.6652 -1.27386L34.7625 -1.70405C35.4741 -3.19735 36.2321 -4.71187 37.0341 -6.2457L37.9203 -5.78234ZM33.5967 3.32026C32.923 4.914 32.3098 6.4778 31.7601 8.00912L30.8189 7.67124C31.3753 6.12119 31.9954 4.5402 32.6757 2.93088L33.5967 3.32026ZM30.2208 12.7972C29.9928 13.6068 29.7854 14.4055 29.5991 15.1927L28.626 14.9623C28.8157 14.1608 29.0266 13.3486 29.2582 12.5262L30.2208 12.7972ZM29.5991 15.1927C29.4013 16.0286 29.2261 16.8599 29.073 17.6859L28.0897 17.5036C28.2459 16.6614 28.4244 15.8142 28.626 14.9623L29.5991 15.1927ZM28.4036 22.6906C28.2631 24.4079 28.217 26.0976 28.2589 27.7556L27.2592 27.7809C27.2164 26.0872 27.2635 24.3618 27.407 22.609L28.4036 22.6906ZM28.6644 32.794C28.8964 34.49 29.2211 36.1452 29.6309 37.7545L28.6618 38.0012C28.2427 36.3555 27.9107 34.6631 27.6737 32.9295L28.6644 32.794ZM31.1583 42.573C31.7675 44.1675 32.4626 45.7051 33.2345 47.1796L32.3485 47.6434C31.5585 46.1344 30.8473 44.5611 30.2242 42.9299L31.1583 42.573ZM35.8387 51.5066C36.8045 52.9131 37.8446 54.2432 38.9482 55.4901L38.1994 56.1529C37.0685 54.8752 36.0032 53.5128 35.0143 52.0727L35.8387 51.5066ZM42.5245 59.0486C43.8074 60.1706 45.1482 61.1929 46.5344 62.1077L45.9836 62.9424C44.559 62.0022 43.1824 60.9524 41.8662 59.8014L42.5245 59.0486ZM50.9295 64.5747C52.4679 65.2944 54.0421 65.8868 55.6379 66.3431L55.363 67.3046C53.7143 66.8332 52.0904 66.2219 50.5057 65.4805L50.9295 64.5747ZM60.5649 67.3042C62.2329 67.4786 63.9089 67.5001 65.5777 67.3593L65.6618 68.3558C63.9284 68.5021 62.1894 68.4795 60.4609 68.2988L60.5649 67.3042ZM70.5036 66.453C72.0776 65.9999 73.6327 65.3883 75.1557 64.6089L75.6113 65.499C74.0312 66.3077 72.4161 66.9431 70.7802 67.414L70.5036 66.453ZM79.3944 61.9281C80.6807 60.9469 81.9327 59.8262 83.1407 58.5592L83.8644 59.2493C82.6215 60.5529 81.3305 61.709 80.0009 62.7232L79.3944 61.9281ZM86.3535 54.6893C86.8428 54.0154 87.3219 53.3124 87.7903 52.5796L88.6329 53.1182C88.1542 53.8672 87.6639 54.5866 87.1627 55.2768L86.3535 54.6893ZM87.7533 52.649C88.0827 51.8938 88.3659 51.1424 88.6045 50.3967L89.5569 50.7014C89.3078 51.4802 89.0125 52.2633 88.6699 53.0488L87.7533 52.649ZM89.5388 45.6957C89.6638 44.0534 89.5699 42.46 89.2751 40.9368L90.2569 40.7468C90.569 42.3593 90.6675 44.0423 90.5359 45.7716L89.5388 45.6957ZM87.7253 36.4407C87.0064 35.0363 86.0897 33.7282 84.9929 32.541L85.7275 31.8624C86.8845 33.1148 87.854 34.4975 88.6154 35.9851L87.7253 36.4407ZM81.3307 29.4647C80.0345 28.62 78.6032 27.8944 77.0501 27.3071L77.4039 26.3717C79.0218 26.9836 80.5177 27.7414 81.8766 28.6269L81.3307 29.4647ZM72.4075 26.0419C70.8827 25.7719 69.2767 25.618 67.598 25.5928L67.613 24.5929C69.3432 24.6189 71.0026 24.7776 72.5819 25.0573L72.4075 26.0419ZM62.755 25.8635C61.2151 26.0543 59.6284 26.347 58.0003 26.7494L57.7604 25.7786C59.4257 25.367 61.0515 25.0669 62.6321 24.8711L62.755 25.8635ZM53.3451 28.1668C51.8749 28.6974 50.3777 29.3154 48.8573 30.0258L48.434 29.1198C49.981 28.397 51.5061 27.7673 53.0056 27.2262L53.3451 28.1668ZM44.5174 32.2742C43.1505 33.0519 41.7684 33.904 40.3735 34.8338L39.8189 34.0017C41.2328 33.0592 42.6349 32.1947 44.0229 31.4051L44.5174 32.2742ZM36.4083 37.6645C35.1502 38.6226 33.8839 39.6443 32.6111 40.7321L31.9614 39.972C33.2481 38.8723 34.529 37.8387 35.8024 36.8689L36.4083 37.6645ZM28.9796 44.0018C28.388 44.5618 27.7954 45.1362 27.202 45.7254L26.4975 45.0157C27.0965 44.421 27.6947 43.8411 28.2921 43.2756L28.9796 44.0018ZM27.202 45.7254C26.6238 46.2995 26.052 46.8826 25.4867 47.4745L24.7636 46.7837C25.3349 46.1856 25.9129 45.5961 26.4975 45.0157L27.202 45.7254ZM22.1858 51.1109C21.1208 52.3441 20.0799 53.6092 19.0623 54.9037L18.2761 54.2858C19.3028 52.9795 20.3535 51.7026 21.429 50.4573L22.1858 51.1109ZM16.1084 58.8328C15.1559 60.1565 14.2251 61.5064 13.3154 62.8804L12.4816 62.3284C13.3982 60.944 14.3364 59.5834 15.2967 58.2488L16.1084 58.8328ZM10.674 67.0309C9.82171 68.4237 8.98894 69.8376 8.17503 71.2707L7.30547 70.7769C8.12455 69.3347 8.96286 67.9113 9.8211 66.5089L10.674 67.0309ZM5.80914 75.5881C5.0445 77.0337 4.2975 78.4959 3.56748 79.9729L2.67102 79.5298C3.40492 78.0449 4.15609 76.5745 4.92518 75.1206L5.80914 75.5881ZM1.44162 84.4161C0.753201 85.9022 0.0807366 87.4008 -0.576392 88.91L-1.49325 88.5108C-0.833161 86.9948 -0.157545 85.4891 0.534257 83.9958L1.44162 84.4161ZM-2.49383 93.447C-3.11645 94.9645 -3.72457 96.4906 -4.31881 98.0237L-5.25122 97.6623C-4.65472 96.1234 -4.04417 94.5911 -3.41897 93.0674L-2.49383 93.447ZM-6.05808 102.635C-6.62438 104.178 -7.17747 105.726 -7.71792 107.277L-8.66225 106.948C-8.12005 105.392 -7.56513 103.839 -6.99684 102.291L-6.05808 102.635ZM-9.30431 111.946C-9.82242 113.508 -10.3284 115.073 -10.8229 116.637L-11.7764 116.336C-11.2806 114.767 -10.7732 113.198 -10.2535 111.631L-9.30431 111.946ZM-12.2793 121.349C-12.7566 122.928 -13.2228 124.505 -13.6786 126.078L-14.6391 125.8C-14.1823 124.223 -13.715 122.642 -13.2365 121.059L-12.2793 121.349ZM-15.0261 130.822C-15.4698 132.415 -15.9032 134.001 -16.3271 135.579L-17.2929 135.32C-16.8682 133.739 -16.434 132.149 -15.9895 130.554L-15.0261 130.822ZM-17.5868 140.348C-18.0038 141.952 -18.4115 143.545 -18.8106 145.126L-19.7802 144.881C-19.3805 143.299 -18.9723 141.703 -18.5546 140.096L-17.5868 140.348ZM-20.0042 149.913C-20.4023 151.529 -20.7919 153.128 -21.1739 154.708L-22.1459 154.473C-21.7636 152.891 -21.3737 151.291 -20.9752 149.674L-20.0042 149.913ZM-22.3264 159.509C-22.7146 161.136 -23.0953 162.739 -23.4694 164.315L-24.4424 164.085C-24.0682 162.508 -23.6875 160.905 -23.2991 159.277L-22.3264 159.509ZM-24.612 169.125C-25.0024 170.763 -25.3864 172.367 -25.7651 173.933L-26.7371 173.697C-26.3587 172.133 -25.975 170.531 -25.5848 168.893L-24.612 169.125ZM-26.9423 178.732C-27.3527 180.378 -27.7584 181.972 -28.1611 183.509L-29.1284 183.256C-28.727 181.723 -28.3223 180.133 -27.9126 178.49L-26.9423 178.732ZM-29.4604 188.295C-29.6884 189.101 -29.916 189.886 -30.1436 190.651L-31.102 190.365C-30.8758 189.606 -30.6495 188.825 -30.4227 188.023L-29.4604 188.295Z" fill="#261436"/>
</svg>
