<svg width="24" height="24" viewBox="0 0 24 24" fill="none" xmlns="http://www.w3.org/2000/svg">
  <path
    d="M12 2C6.47719 2 2 6.47719 2 12C2 17.5231 6.47719 22 12 22C17.5231 22 22 17.5231 22 12C22 6.47719 17.5231 2 12 2ZM12 20.7697C7.17531 20.7697 3.25 16.8247 3.25 12C3.25 7.17527 7.17531 3.24996 12 3.24996C16.8247 3.24996 20.75 7.17529 20.75 12C20.75 16.8246 16.8247 20.7697 12 20.7697ZM15.5353 8.46469C15.2913 8.22062 14.8956 8.22062 14.6516 8.46469L12 11.1163L9.34844 8.46469C9.10437 8.22062 8.70875 8.22062 8.46438 8.46469C8.22031 8.70875 8.22031 9.10437 8.46438 9.34844L11.1159 12L8.46438 14.6516C8.22031 14.8953 8.22031 15.2916 8.46438 15.5353C8.70844 15.7794 9.10406 15.7794 9.34844 15.5353L12 12.8838L14.6516 15.5353C14.8956 15.7794 15.2913 15.7794 15.5353 15.5353C15.7794 15.2916 15.7794 14.8953 15.5353 14.6516L12.8837 12L15.5353 9.34844C15.7797 9.10406 15.7797 8.70844 15.5353 8.46469Z"
    fill="#261436" />
</svg>