<svg width="80" height="80" viewBox="0 0 80 80" fill="none" xmlns="http://www.w3.org/2000/svg">
<g filter="url(#filter0_d_25_1642)">
<circle cx="39.9998" cy="32" r="13.3333" fill="#F6F6F6"/>
<path d="M40 52C34.6957 52 29.6086 49.8929 25.8579 46.1421C22.1071 42.3914 20 37.3043 20 32C20 26.6957 22.1071 21.6086 25.8579 17.8579C29.6086 14.1071 34.6957 12 40 12C45.3043 12 50.3914 14.1071 54.1421 17.8579C57.8929 21.6086 60 26.6957 60 32C60 37.3043 57.8929 42.3914 54.1421 46.1421C50.3914 49.8929 45.3043 52 40 52ZM40.63 19.67C40.4884 19.5808 40.3296 19.5225 40.1639 19.4988C39.9983 19.4751 39.8295 19.4867 39.6685 19.5327C39.5076 19.5787 39.3583 19.6581 39.2301 19.7658C39.102 19.8735 38.998 20.0069 38.925 20.1575L35.925 26.2375L29.215 27.2125C28.9932 27.243 28.7845 27.3353 28.6128 27.4789C28.441 27.6224 28.3131 27.8114 28.2438 28.0243C28.1744 28.2371 28.1663 28.4652 28.2205 28.6824C28.2746 28.8996 28.3888 29.0972 28.55 29.2525L33.41 33.9825L32.26 40.6675C32.2231 40.8872 32.2482 41.1129 32.3325 41.3191C32.4168 41.5253 32.557 41.7039 32.7373 41.8348C32.9176 41.9657 33.1308 42.0438 33.353 42.0601C33.5751 42.0765 33.7975 42.0306 33.995 41.9275L40 38.7725L46 41.925C46.1974 42.0291 46.42 42.0758 46.6427 42.0599C46.8653 42.044 47.079 41.966 47.2596 41.8349C47.4401 41.7037 47.5804 41.5246 47.6644 41.3179C47.7485 41.1111 47.7729 40.8849 47.735 40.665L46.59 33.9825L51.445 29.25C51.6035 29.0939 51.7154 28.8968 51.7681 28.6807C51.8209 28.4645 51.8124 28.238 51.7436 28.0265C51.6748 27.8149 51.5485 27.6267 51.3787 27.4829C51.2089 27.3392 51.0025 27.2455 50.7825 27.2125L44.07 26.2375L41.07 20.1575C40.9723 19.9567 40.8198 19.7877 40.63 19.67Z" fill="#F8E855"/>
</g>
<defs>
<filter id="filter0_d_25_1642" x="0" y="0" width="80" height="80" filterUnits="userSpaceOnUse" color-interpolation-filters="sRGB">
<feFlood flood-opacity="0" result="BackgroundImageFix"/>
<feColorMatrix in="SourceAlpha" type="matrix" values="0 0 0 0 0 0 0 0 0 0 0 0 0 0 0 0 0 0 127 0" result="hardAlpha"/>
<feOffset dy="8"/>
<feGaussianBlur stdDeviation="10"/>
<feComposite in2="hardAlpha" operator="out"/>
<feColorMatrix type="matrix" values="0 0 0 0 0 0 0 0 0 0 0 0 0 0 0 0 0 0 0.1 0"/>
<feBlend mode="normal" in2="BackgroundImageFix" result="effect1_dropShadow_25_1642"/>
<feBlend mode="normal" in="SourceGraphic" in2="effect1_dropShadow_25_1642" result="shape"/>
</filter>
</defs>
</svg>
