
<svg xmlns:x="http://ns.adobe.com/Extensibility/1.0/" xmlns:i="http://ns.adobe.com/AdobeIllustrator/10.0/" xmlns:graph="http://ns.adobe.com/Graphs/1.0/" xmlns="http://www.w3.org/2000/svg" xmlns:xlink="http://www.w3.org/1999/xlink" version="1.1" id="Слой_1" x="0px" y="0px" viewBox="0 0 240 120" style="enable-background:new 0 0 240 120;" xml:space="preserve">
<style type="text/css">
	.st0{fill-rule:evenodd;clip-rule:evenodd;fill:#3c2a2a;}
	.st1{fill:#3c2a2a;}
	.st2{fill:none;stroke:#3c2a2a;stroke-width:1.2143;stroke-miterlimit:10;}
	.st3{fill:#B51D27;stroke:#3c2a2a;stroke-width:1.2143;stroke-miterlimit:10;}
</style>
<metadata>
	<sfw xmlns="http://ns.adobe.com/SaveForWeb/1.0/">
		<slices/>
		<sliceSourceBounds bottomLeftOrigin="true" height="100" width="100" x="6.7" y="9.3"/>
	</sfw>
</metadata>
<g>
	<g>
		<path id="Layer_00000069395159289179436150000005119095816243151802_" class="st0" d="M46.9,24.7h1.8l27.2,59.1    c0.8,1.8,1.9,3.4,2.9,4.5c1.1,1.2,2.3,2,3.7,2.6c1.4,0.5,2.9,0.8,4.8,0.8H89v1.9H49.7v-1.9h5.1c2.5,0,4.4-0.4,5.6-1    c1.2-0.7,1.7-1.7,1.7-3.2c0-0.9-0.2-2-0.7-3.3c-0.5-1.3-1.5-3.6-3.1-7c-0.1-0.2-0.2-0.5-0.4-1c-0.2-0.4-0.4-0.9-0.6-1.3l-1.1-2.5    H27.6l-2.2,5c-0.7,1.7-1.1,3.4-1.1,5.2c0,1.5,0.4,2.9,1.2,4.4c0.8,1.4,1.9,2.5,3.2,3.3c0.8,0.5,1.6,0.8,2.4,1    c0.7,0.2,1.7,0.3,2.9,0.4v1.9H6.7v-1.9c2-0.2,3.6-0.6,4.8-1.1c1.2-0.5,2.5-1.3,3.9-2.4c3.4-2.6,6.7-7.6,10-14.9L46.9,24.7z     M41.7,40.5L28.5,70.7h26.8L41.7,40.5z"/>
		<path id="Layer_00000091003402477632567830000001797135635134208393_" class="st1" d="M151.9,26.6h1.7v23.1h-1.7    c-2-5.6-4.3-9.9-6.9-13.1c-1.8-2.2-4.2-4.1-7-5.8c-2.8-1.7-6-2.9-9.5-3.9c-3.5-1-7-1.4-10.6-1.4c-2.6,0-5.1,0.4-7.2,1.1    s-3.8,1.8-5.3,3.3c-1,1-1.9,2.2-2.5,3.5c-0.6,1.3-0.9,2.5-0.9,3.7c0,2.2,0.8,4.2,2.6,5.8c0.8,0.8,2,1.6,3.4,2.4    c1.5,0.7,3.5,1.4,5.8,2.2c2.4,0.7,5.7,1.6,9.9,2.6c1.2,0.4,1.9,0.5,2.4,0.6l2.4,0.6l3.8,1c6.4,1.6,11,3.1,14,4.3    c2.9,1.3,5.4,2.9,7.5,5c1.6,1.5,2.8,3.3,3.7,5.3c0.9,2,1.3,4.2,1.3,6.6s-0.5,4.6-1.5,7c-1,2.4-2.4,4.4-4.3,6.1    c-2.4,2.5-5.3,4.3-8.8,5.5c-3.5,1.2-7.5,1.8-12,1.8c-3.1,0-6.1-0.3-8.8-1c-2.8-0.6-6.1-1.8-10.1-3.4c-2.6-1-4.5-1.7-5.9-2.1    c-1.3-0.4-2.6-0.5-3.8-0.5c-2.3,0-4.2,0.6-5.8,1.8c-1.6,1.2-2.6,2.9-3.2,5.1H93V62.5h1.7c0.7,5.5,2.9,10.6,6.7,15.1    c2.3,2.6,5.2,5.1,8.8,7.4c3.6,2.3,7.3,4,11.2,5.3c3.9,1.3,7.6,1.9,11.1,1.9c3.1,0,6-0.5,8.6-1.6c2.6-1,4.6-2.5,6.1-4.3    s2.2-3.9,2.2-6.3c0-2.5-1-4.6-2.9-6.6c-0.9-0.8-2-1.7-3.5-2.4c-1.4-0.7-3.3-1.5-5.5-2.3c-2.3-0.8-5.4-1.7-9.3-2.8l-4.8-1.3    c-7.5-2-12.8-3.6-15.7-4.8c-3.3-1.2-5.8-2.4-7.6-3.6c-1.9-1.2-3.4-2.7-4.8-4.5c-2-2.6-3-5.4-3-8.5c0-3.7,1.1-7.1,3.3-10.1    c2.2-2.9,5.4-5.3,9.3-7s8.4-2.5,13.3-2.5c7.4,0,15,2,22.9,6.1c2.8,1.4,4.6,2.1,5.7,2.1C149,32.2,150.8,30.3,151.9,26.6L151.9,26.6    z"/>
		<path id="Layer_00000022540880243214862050000013293669017586130825_" class="st1" d="M157.9,26.1H204v1.8h-4.9    c-4.2,0-7.2,1-9.2,3s-3,5.1-3,9.3v51.7h17.5c3.4,0,6.7-0.8,9.8-2.3c3.1-1.5,5.7-3.7,7.9-6.4c1.3-1.7,2.5-3.4,3.6-5.1    c1-1.7,2-3.7,2.9-6.1c1-2.4,1.9-5.1,2.8-8.2h1.8v29.9h-75.3l-0.1-1.8h2.5c8.2,0,12.3-4.1,12.3-12.4V40.3c0-8.2-4.1-12.3-12.3-12.3    h-2.4L157.9,26.1z"/>
	</g>
	<path id="Layer_00000040564727874584062190000009433974479945620382_" class="st2" d="M7.1,9.9h226.2"/>
	<path id="Layer_00000101821534847924684530000006124677911298933425_" class="st3" d="M7.1,110.1h226.2"/>
</g>
</svg>