<svg width="76" height="77" viewBox="0 0 76 77" fill="none" xmlns="http://www.w3.org/2000/svg">
  <path d="M22.1812 31.5C26.8934 31.5 30.7125 27.5825 30.7125 22.75C30.7125 17.9175 26.8934 14 22.1812 14C17.4691 14 13.65 17.9175 13.65 22.75C13.65 27.5825 17.4691 31.5 22.1812 31.5Z" fill="#D0C7FC" />
  <path fill-rule="evenodd" clip-rule="evenodd" d="M10.2375 0C4.58388 0 0 4.70099 0 10.5V66.5C0 72.299 4.58388 77 10.2375 77H64.8375C70.4911 77 75.075 72.299 75.075 66.5V10.5C75.075 4.70099 70.4911 0 64.8375 0H10.2375ZM64.8375 7H10.2375C8.35296 7 6.825 8.56703 6.825 10.5V62.4167L23.8875 42L44.3625 61.25L39.2437 49L56.3062 29.75L68.25 40.4688V10.5C68.25 8.56703 66.722 7 64.8375 7Z" fill="#D0C7FC" />
</svg>