<svg width="56" height="56" viewBox="0 0 56 56" fill="none" xmlns="http://www.w3.org/2000/svg">
  <g clip-path="url(#clip0_84_1182)">
    <circle cx="28" cy="28" r="27.5" stroke="#261436" stroke-dasharray="2 2" />
    <path d="M28.5015 36.5562C33.5214 36.5562 37.5908 32.4867 37.5908 27.4668C37.5908 22.4469 33.5214 18.3774 28.5015 18.3774C23.4816 18.3774 19.4121 22.4469 19.4121 27.4668C19.4121 32.4867 23.4816 36.5562 28.5015 36.5562Z" fill="#FFB6B6" />
    <path d="M23.2836 37.9L22.873 33.7491L31.0731 32.2158L35.9152 44.0053L27.4941 53.6895L21.4941 41.9L23.2836 37.9Z" fill="#FFB6B6" />
    <path d="M22.7407 35.8271L24.5335 36.2322C24.5335 36.2322 23.1242 31.7633 23.6025 31.3366C24.0809 30.91 25.2531 31.5822 25.2531 31.5822L26.4849 32.9633L27.9853 31.4357C27.9853 31.4357 29.6142 29.4102 30.252 28.8413C30.8898 28.2724 29.8654 26.1609 29.8654 26.1609C29.8654 26.1609 39.3277 23.6094 35.8067 19.0199C35.8067 19.0199 33.7424 15.4215 33.0702 16.5937C32.3979 17.7659 31.5963 15.9042 31.5963 15.9042L29.1485 16.3697C29.1485 16.3697 24.3176 13.5212 19.7324 19.6149C15.1472 25.7086 22.7407 35.8271 22.7407 35.8271Z" fill="#261436" />
    <path d="M45.5962 49.7843C40.6288 53.8116 34.4836 56.0001 28.0004 56.0001C22.0804 56.0001 16.4415 54.1748 11.7246 50.7916C11.733 50.7032 11.7415 50.6159 11.7488 50.5285C11.8741 49.1601 11.9857 47.8295 12.0593 46.7264C12.3446 42.4432 22.3372 39.5885 22.3372 39.5885C22.3372 39.5885 22.3825 39.6338 22.473 39.7127C23.0246 40.1969 25.2636 41.9527 29.1899 42.4432C32.6909 42.8811 33.8436 40.8043 34.192 39.8095C34.2972 39.5064 34.3288 39.3032 34.3288 39.3032L44.6067 44.1569C45.2772 45.1148 45.5394 47.178 45.5909 49.4969C45.593 49.5927 45.5951 49.6874 45.5962 49.7843Z" fill="#9747FF" />
  </g>
  <defs>
    <clipPath id="clip0_84_1182">
      <rect width="56" height="56" fill="white" />
    </clipPath>
  </defs>
</svg>