<svg width="56" height="56" viewBox="0 0 56 56" fill="none" xmlns="http://www.w3.org/2000/svg">
  <g clip-path="url(#clip0_84_1027)">
    <circle cx="28" cy="28" r="27.5" stroke="#261436" stroke-dasharray="2 2" />
    <path d="M39.915 39.9H25.915V20.9526L38.0203 27.5842L39.915 39.9Z" fill="#261436" />
    <path d="M28.5015 36.5557C33.5214 36.5557 37.5908 32.4862 37.5908 27.4663C37.5908 22.4464 33.5214 18.377 28.5015 18.377C23.4816 18.377 19.4121 22.4464 19.4121 27.4663C19.4121 32.4862 23.4816 36.5557 28.5015 36.5557Z" fill="#FFB6B6" />
    <path d="M23.2836 37.9L22.873 33.7491L31.0731 32.2158L35.9152 44.0053L27.4941 53.6895L21.4941 41.9L23.2836 37.9Z" fill="#FFB6B6" />
    <path d="M48.1091 47.483C48.007 47.5893 47.9028 47.6946 47.7986 47.7988C47.4681 48.1293 47.1312 48.4504 46.787 48.7619C41.6291 53.4398 35.0112 55.9998 27.9996 55.9998C21.5354 55.9998 15.4059 53.824 10.447 49.8188C10.4438 49.8167 10.4417 49.8146 10.4386 49.8114C10.2881 49.6904 10.1396 49.5672 9.99121 49.4419C10.0175 49.3661 10.0459 49.2914 10.0744 49.2177C11.6691 45.063 14.8186 43.0304 16.7302 42.1409C17.6775 41.6998 18.3207 41.5388 18.3207 41.5388L20.5649 37.4967L22.1449 40.444L23.3091 42.6167L28.086 51.5293L32.207 41.2683L33.4838 38.0872L33.8112 37.2725L35.3681 38.484L36.8417 39.6304L39.8091 40.2851L42.2165 40.8167L45.486 41.5388C46.8081 42.6156 47.6123 44.664 48.0617 47.2093C48.0786 47.2998 48.0944 47.3914 48.1091 47.483Z" fill="#F6EEA2" />
    <path d="M23.7195 17.137C24.8267 15.2772 26.8601 14.0012 29.0164 13.8131C31.1726 13.625 33.3962 14.5297 34.8087 16.1698C35.6503 17.147 36.2022 18.3439 37.0226 19.3391C38.7881 21.4807 41.7986 22.733 42.5699 25.3992C42.9064 26.5627 42.7387 27.8048 42.5685 29.0039C42.4225 30.0317 42.2765 31.0595 42.1306 32.0873C42.017 32.8872 41.9081 33.7304 42.208 34.4806C42.5599 35.3606 43.4019 35.9371 43.9464 36.7129C44.8728 38.0331 44.805 39.9659 43.7885 41.218C43.3477 41.761 42.7632 42.1705 42.301 42.6955C41.8388 43.2204 41.496 43.9382 41.6896 44.6103C42.0604 45.8978 44.0795 46.2065 44.301 47.5279C44.4142 48.2035 43.9476 48.8782 43.3362 49.1871C42.7248 49.4961 42.005 49.505 41.325 49.4224C38.7405 49.1082 36.3475 47.4933 35.0891 45.214C33.8307 42.9347 33.7391 40.0492 34.8503 37.6947C35.763 35.7608 37.4593 34.052 37.4408 31.9137C37.4307 30.7487 36.8964 29.6607 36.3739 28.6195C35.3045 26.4883 34.2351 24.3572 33.1657 22.2261C32.5929 21.0845 31.9281 19.8543 30.7488 19.3639C29.8373 18.9849 28.8032 19.1319 27.8283 19.2869C26.8534 19.4419 25.8208 19.5928 24.9066 19.2204C23.9925 18.848 23.3017 17.7415 23.7373 16.8557" fill="#261436" />
    <path d="M25.3127 17.2343C23.5567 16.6562 21.5867 17.5842 20.3979 19C19.209 20.4158 18.6323 22.2322 18.0829 23.9974C17.7682 25.0086 17.4536 26.0197 17.1389 27.0309C16.8428 27.982 16.5468 28.9332 16.2508 29.8844C15.9026 31.0032 15.5516 32.1918 15.8373 33.3282C16.0439 34.1497 16.5755 34.8957 16.5869 35.7427C16.5989 36.6275 16.0448 37.4043 15.5592 38.1441C15.0736 38.8838 14.6178 39.7627 14.8491 40.6168C15.201 41.9159 17.0072 42.63 16.9082 43.9723C16.8752 44.4203 16.6161 44.8346 16.6208 45.2838C16.6268 45.8553 17.0742 46.3491 17.5984 46.5768C18.1227 46.8045 18.7123 46.8168 19.2837 46.8068C21.0365 46.776 22.7861 46.5678 24.4972 46.1865C25.1555 46.0398 25.825 45.8599 26.373 45.4667C26.9209 45.0735 27.3297 44.422 27.2584 43.7513C27.1473 42.7062 26.0236 42.1133 25.4565 41.2284C24.8995 40.3592 24.9125 39.2579 24.6723 38.2539C24.3422 36.8741 23.527 35.6694 22.915 34.3894C20.6143 29.5772 21.4197 23.4434 24.8847 19.3883C25.1911 19.0297 25.5258 18.669 25.6536 18.2151C25.7814 17.7611 25.6167 17.1827 25.1726 17.0239" fill="#261436" />
  </g>
  <defs>
    <clipPath id="clip0_84_1027">
      <rect width="56" height="56" fill="white" />
    </clipPath>
  </defs>
</svg>