<svg width="102" height="8" viewBox="0 0 102 8" fill="none" xmlns="http://www.w3.org/2000/svg">
  <path d="M1 3.5C0.723858 3.5 0.5 3.72386 0.5 4C0.5 4.27614 0.723858 4.5 1 4.5V3.5ZM101.354 4.35355C101.549 4.15829 101.549 3.84171 101.354 3.64645L98.1716 0.464466C97.9763 0.269204 97.6597 0.269204 97.4645 0.464466C97.2692 0.659728 97.2692 0.976311 97.4645 1.17157L100.293 4L97.4645 6.82843C97.2692 7.02369 97.2692 7.34027 97.4645 7.53553C97.6597 7.7308 97.9763 7.7308 98.1716 7.53553L101.354 4.35355ZM1 4.5H101V3.5H1V4.5Z" fill="#261436" />
</svg>